<svg width="60" height="60" viewBox="0 0 60 60" fill="none" xmlns="http://www.w3.org/2000/svg">
<g id="logos:bootstrap">
<path id="Vector" d="M0 52.2635C0 56.5366 3.46383 60 7.73648 60H52.2633C56.5366 60 60 56.5362 60 52.2635V7.73672C60 3.46336 56.5362 0 52.2635 0H7.73672C3.46336 0 0 3.46383 0 7.73648V52.2633V52.2635Z" fill="#563D7C"/>
<path id="Vector_2" d="M24.8807 26.5402V18.0434H32.3598C33.0723 18.0434 33.759 18.1027 34.4204 18.2215C35.0818 18.3401 35.6671 18.552 36.1759 18.8573C36.6845 19.1627 37.0916 19.5867 37.397 20.1293C37.7021 20.6721 37.855 21.3675 37.855 22.2152C37.855 23.7417 37.397 24.8442 36.481 25.5225C35.5653 26.201 34.3951 26.5402 32.9703 26.5402H24.8807V26.5402ZM16.8925 11.8359V48.1641H34.4968C36.125 48.1641 37.7108 47.9606 39.2542 47.5535C40.7975 47.1464 42.1712 46.519 43.3754 45.671C44.5794 44.823 45.5378 43.729 46.25 42.3893C46.9625 41.0494 47.3185 39.4636 47.3185 37.632C47.3185 35.3592 46.7673 33.4174 45.665 31.8063C44.5625 30.195 42.8919 29.0672 40.6532 28.4227C42.2814 27.6427 43.5111 26.6419 44.3422 25.4208C45.1731 24.1997 45.5886 22.6734 45.5886 20.8416C45.5886 19.1456 45.3088 17.7211 44.7491 16.5677C44.1894 15.4146 43.4007 14.4902 42.3831 13.7948C41.3657 13.0995 40.1446 12.5991 38.7198 12.2939C37.2953 11.9885 35.7179 11.8359 33.988 11.8359H16.8925V11.8359ZM24.8807 41.9566V31.9842H33.5809C35.3108 31.9842 36.7016 32.3827 37.7532 33.18C38.8046 33.9771 39.3306 35.3084 39.3306 37.174C39.3306 38.1239 39.1693 38.9039 38.8471 39.5145C38.5248 40.125 38.0924 40.6085 37.5496 40.9645C37.007 41.3208 36.3793 41.5751 35.6671 41.7279C34.9546 41.8802 34.2086 41.9566 33.4283 41.9566H24.8807V41.9566Z" fill="white"/>
</g>
</svg>
