<svg width="60" height="60" viewBox="0 0 60 60" fill="none" xmlns="http://www.w3.org/2000/svg">
<g id="vscode-icons:file-type-html">
<path id="Vector" d="M11.0662 51.0019L6.85309 3.75H53.1468L48.9281 50.9944L29.9718 56.25L11.0662 51.0019Z" fill="#E44F26"/>
<path id="Vector_2" d="M30 52.2338L45.3188 47.9869L48.9225 7.61438H30V52.2338Z" fill="#F1662A"/>
<path id="Vector_3" d="M30 25.1381H22.3312L21.8025 19.2038H30V13.4081H15.4688L15.6075 14.9644L17.0306 30.9338H30V25.1381V25.1381Z" fill="#EBEBEB"/>
<path id="Vector_4" d="M30 40.1888L29.9737 40.1963L23.52 38.4544L23.1075 33.8325H17.2894L18.1012 42.93L29.9737 46.2263L30 46.2188V40.1888Z" fill="#EBEBEB"/>
<path id="Vector_5" d="M29.9794 25.1381V30.9337H37.1156L36.4444 38.4506L29.9794 40.1944V46.2244L41.8612 42.93L41.9475 41.9512L43.3087 26.6944L43.4512 25.1381H29.9794V25.1381Z" fill="white"/>
<path id="Vector_6" d="M29.9794 13.4081V19.2038H43.9781L44.0944 17.9025L44.3587 14.9644L44.4975 13.4081H29.9794V13.4081Z" fill="white"/>
</g>
</svg>
