<svg width="511" height="336" viewBox="0 0 511 336" fill="none" xmlns="http://www.w3.org/2000/svg">
<g id="thinking 1">
<path id="ground" d="M432.359 316.025C425.522 329.971 66.5954 328.801 67.1393 316.025C73.9761 302.079 432.903 303.25 432.359 316.025Z" fill="#E3DBD1"/>
<g id="leaf">
<path id="Vector" d="M395.845 313.328C395.845 313.328 407.658 269.789 362.735 245L395.845 313.328Z" fill="#9DD99C"/>
<path id="Vector_2" d="M397.317 313.561C397.317 313.561 402 270.589 454.318 267.896L397.317 313.561Z" fill="#9DD99C"/>
</g>
<g id="person-thinking">
<path id="Vector_3" d="M159.682 287.061L144.43 285.985L149.514 310.211L166.8 302.674L159.682 287.061Z" fill="#FFB9B9"/>
<path id="Vector_4" d="M299.495 241.837L263.906 205.228L243.57 221.918L203.405 273.063L207.981 280.6L256.789 245.607L289.835 291.369L321.356 274.679L299.495 241.837Z" fill="#2F2E41"/>
<path id="Vector_5" opacity="0.1" d="M299.495 241.837L263.906 205.228L243.57 221.918L203.405 273.063L207.981 280.6L256.789 245.607L289.835 291.369L321.356 274.679L299.495 241.837Z" fill="black"/>
<path id="Vector_6" d="M302.545 266.065L297.97 269.833L260.856 256.374L252.213 252.605L234.927 256.374C234.927 256.374 234.927 241.299 251.196 241.838L267.974 246.145L287.801 247.76L302.545 266.065Z" fill="#FFB9B9"/>
<path id="Vector_7" d="M335.592 305.904L324.406 313.442H311.188L249.67 289.215L159.682 306.443L157.14 285.985L239.502 247.76L311.697 273.063L335.592 305.904Z" fill="#2F2E41"/>
<path id="Vector_8" d="M263.398 210.073L255.771 211.688L254.11 209.635C252.794 208.01 251.96 206.01 251.713 203.885C251.466 201.76 251.817 199.605 252.721 197.691V197.691L274.074 168.08C274.074 168.08 280.175 153.544 289.835 159.466C299.495 165.388 281.7 175.079 281.7 175.079L271.024 192.845L272.041 201.998L263.398 210.073Z" fill="#FFB9B9"/>
<path id="Vector_9" d="M311.696 175.079C322.647 175.079 331.524 165.678 331.524 154.082C331.524 142.486 322.647 133.086 311.696 133.086C300.746 133.086 291.869 142.486 291.869 154.082C291.869 165.678 300.746 175.079 311.696 175.079Z" fill="#FFB9B9"/>
<path id="Vector_10" d="M302.799 169.426L311.951 192.576L333.812 182.885C333.812 182.885 326.694 164.581 326.694 164.042C326.694 163.504 302.799 169.426 302.799 169.426Z" fill="#FFB9B9"/>
<path id="Vector_11" d="M149.112 295.398C149.112 295.398 153.666 287.225 151.742 286.271C149.819 285.317 141.651 281.513 141.651 281.513L129.672 277.309C129.672 277.309 112.388 250.107 112.008 273.763C111.629 297.418 124.593 303.104 124.593 303.104C124.593 303.104 136.156 329.455 142.706 325.253C149.256 321.052 155.81 306.788 155.81 306.788C155.81 306.788 143.999 300.064 149.112 295.398Z" fill="#2F2E41"/>
<g id="t-shirt">
<path id="Vector_12" d="M363 237.913C363 250.585 361.114 263.177 357.413 275.228L355.928 280.062L348.81 314.518L341.184 316.672L335.592 309.135L324.407 300.521L316.272 286.523L309.297 274.215L307.121 270.371L299.495 229.993L270.515 212.765L260.856 211.15L262.889 205.228L271.532 192.845L280.175 191.768L282.717 189.615L284.751 190.692L292.885 185.846L295.427 186.923L310.293 188.387L319.323 186.385L332.307 179.004L337.625 179.924L355.928 196.075C360.607 209.468 363.002 223.633 363 237.913V237.913Z" fill="#12203B"/>
<path id="Vector_13" opacity="0.1" d="M357.453 233.224L338.134 246.683L309.297 274.216L307.121 270.372L301.02 238.069H302.545L318.306 207.382L357.453 233.224Z" fill="black"/>
<path id="Vector_14" d="M318.306 204.151L302.545 234.838H296.953L293.394 245.606L285.26 247.76L307.121 273.063L338.134 243.452L357.453 229.993L318.306 204.151Z" fill="#12203B"/>
</g>
<path id="Vector_15" d="M296.274 138.47L294.126 139.345C293.796 139.109 293.513 138.804 293.295 138.45C293.077 138.096 292.928 137.7 292.857 137.284C292.785 136.868 292.793 136.442 292.879 136.029C292.966 135.616 293.129 135.226 293.359 134.881L289.389 134.685C291.938 131.09 295.178 128.11 298.896 125.941C302.613 123.772 306.723 122.464 310.954 122.103C315.185 121.742 319.439 122.336 323.437 123.846C327.435 125.357 331.084 127.749 334.143 130.865C334.324 130.205 336.294 131.488 337.099 132.788C337.369 131.716 339.216 136.901 339.87 140.567C340.172 139.346 341.335 141.316 340.316 143.207C340.962 143.107 341.254 144.856 340.754 145.831C341.46 145.48 341.341 147.568 340.575 148.963C341.583 148.868 332.626 163.589 328.999 172.193C327.946 167.069 326.762 161.674 323.367 157.857C322.79 157.208 322.157 156.617 321.526 156.028L318.114 152.837C314.145 149.128 310.535 144.549 305.248 143.163C301.615 142.21 299.317 141.995 301.297 137.66C299.508 138.45 297.838 139.626 296.033 140.36C296.057 139.754 296.31 139.076 296.274 138.47Z" fill="#2F2E41"/>
<path id="Vector_16" d="M321.611 160.274C323.576 160.274 325.169 158.586 325.169 156.505C325.169 154.424 323.576 152.736 321.611 152.736C319.645 152.736 318.052 154.424 318.052 156.505C318.052 158.586 319.645 160.274 321.611 160.274Z" fill="#FFB9B9"/>
</g>
</g>
</svg>
